<svg width="16" height="16" viewBox="0 0 16 16" fill="none" xmlns="http://www.w3.org/2000/svg">
<rect width="16" height="16" rx="8" fill="#1D9BF0" fill-opacity="0.56"/>
<path d="M11.4 6.85004C11.4911 6.75574 11.5415 6.62944 11.5403 6.49834C11.5392 6.36724 11.4866 6.24184 11.3939 6.14913C11.3012 6.05643 11.1758 6.00384 11.0447 6.0027C10.9136 6.00157 10.7873 6.05196 10.693 6.14304L7.04301 9.79304L5.39301 8.14304C5.29871 8.05196 5.17241 8.00156 5.04131 8.0027C4.91021 8.00384 4.7848 8.05643 4.6921 8.14913C4.5994 8.24184 4.54681 8.36724 4.54567 8.49834C4.54453 8.62944 4.59493 8.75574 4.68601 8.85004L6.68601 10.85C6.77977 10.9438 6.90693 10.9964 7.03951 10.9964C7.17209 10.9964 7.29925 10.9438 7.39301 10.85L11.393 6.85004H11.4Z" fill="white"/>
</svg>
